<svg  viewBox="0 0 83 48" fill="none" xmlns="http://www.w3.org/2000/svg">
<path d="M71.4689 1.56874V13.8938C69.1632 11.9313 66.1839 10.7554 62.9319 10.7554C59.1546 10.7554 55.7502 12.3447 53.3403 14.8932C52.1694 11.3253 50.3209 8.0664 47.9551 5.25704C52.0572 1.96607 57.266 -0.000488281 62.9319 -0.000488281C65.9393 -0.000488281 68.8184 0.553358 71.4689 1.56874ZM71.4689 23.9955V34.049C69.1632 36.0035 66.1839 37.1835 62.9319 37.1835C59.1586 37.1835 55.7583 35.5982 53.3523 33.0617C52.1815 36.6497 50.3329 39.9246 47.9551 42.742C52.0572 46.033 57.266 47.9995 62.9319 47.9995C65.9393 47.9995 68.8184 47.4457 71.4689 46.4303C76.2246 44.6203 80.2505 41.3413 82.9972 37.1433V23.9995H71.4689V23.9955ZM47.9551 23.9714V23.9955C47.9551 29.7427 45.9381 35.0202 42.5698 39.154C41.4952 40.4744 40.2802 41.6825 38.9489 42.742C34.8469 46.033 29.6381 47.9995 23.9721 47.9995C10.7356 47.9995 0.0012207 37.2517 0.0012207 23.9955C0.0012207 10.7393 10.7356 -0.000488281 23.9761 -0.000488281C29.6421 -0.000488281 34.8509 1.96607 38.953 5.25704C40.2802 6.31657 41.4992 7.5246 42.5739 8.845C45.9381 12.9707 47.9551 18.2363 47.9591 23.9714H47.9551ZM37.1806 23.9714C37.1806 20.4557 35.8132 17.257 33.5677 14.8932C31.1618 12.3447 27.7534 10.7554 23.9761 10.7554C16.6862 10.7554 10.7717 16.6711 10.7717 23.9714C10.7717 31.2718 16.6862 37.1835 23.9761 37.1835C27.7494 37.1835 31.1498 35.5982 33.5557 33.0617C35.8012 30.6978 37.1766 27.5072 37.1806 23.9995V23.9714Z" fill="url(#paint0_linear_294_468)"/>
<defs>
<linearGradient id="paint0_linear_294_468" x1="0.0012207" y1="23.9995" x2="83.0012" y2="23.9995" gradientUnits="userSpaceOnUse">
<stop stop-color="#9303EB"/>
<stop offset="1" stop-color="#4C0083"/>
</linearGradient>
</defs>
</svg>
