<svg width="16" height="14" viewBox="0 0 16 14" fill="none" xmlns="http://www.w3.org/2000/svg">
<path d="M14.4806 3.00704C14.3485 3.12082 14.2115 3.22911 14.0698 3.33157L13.8513 3.48957L13.8633 3.75893C13.8692 3.892 13.8722 4.02835 13.8722 4.16173C13.8722 8.28329 10.7361 13.0005 5.03344 13.0005H5.03318C3.99824 13.001 2.97657 12.8193 2.01345 12.4686C3.15962 12.2685 4.24548 11.7877 5.17042 11.0612L6.27157 10.1962L4.87161 10.1681C4.2909 10.1564 3.72832 9.96374 3.26238 9.61695C3.00905 9.4284 2.79117 9.19941 2.61649 8.94083C2.88375 8.9266 3.14961 8.88385 3.40945 8.81275L3.37617 7.84031C2.74614 7.71349 2.17948 7.37241 1.77251 6.87503C1.5245 6.57194 1.34512 6.22221 1.24291 5.8498C1.52657 5.92683 1.81922 5.97083 2.11507 5.98023L3.86023 6.03563L2.40893 5.06488C1.82032 4.67117 1.40371 4.06812 1.24377 3.37828C1.13952 2.92868 1.1494 2.46421 1.26728 2.02565C2.03015 2.81876 2.92226 3.47948 3.90734 3.97857C5.13514 4.60064 6.47996 4.95774 7.85463 5.02673L8.51602 5.05992L8.36683 4.41471C8.22886 3.81798 8.2913 3.19242 8.5445 2.63474C8.79771 2.07706 9.22758 1.61832 9.76765 1.32945C10.3077 1.04058 10.9279 0.937663 11.5323 1.03662C12.1368 1.13558 12.6918 1.43089 13.1115 1.8769L13.3012 2.07842L13.5726 2.02473C13.7924 1.98126 14.0096 1.92749 14.2236 1.86367C14.1098 1.95956 13.988 2.04675 13.8589 2.12412L14.1736 3.04964C14.2764 3.03771 14.3787 3.0235 14.4806 3.00704ZM14.4806 3.00704C14.6456 2.86492 14.8029 2.71424 14.9518 2.55566C14.7739 2.7147 14.5803 2.85759 14.373 2.98184L14.1159 2.55298L14.0582 2.05632C14.3435 2.02317 14.6257 1.96954 14.9025 1.896M14.8579 1.09856C14.4153 1.29378 13.9518 1.44005 13.4756 1.53423L14.8579 1.09856Z" fill="white" stroke="white"/>
</svg>
